<svg width="25" height="24" viewBox="0 0 25 24" fill="none" xmlns="http://www.w3.org/2000/svg">
<path d="M12.4444 0C10.8102 0 9.19199 0.318095 7.68216 0.936124C6.17233 1.55415 4.80047 2.46001 3.64489 3.60198C1.31111 5.90829 0 9.03631 0 12.2979C0 17.7336 3.57156 22.3453 8.512 23.981C9.13422 24.0793 9.33333 23.6981 9.33333 23.3661V21.2877C5.88622 22.0256 5.152 19.6398 5.152 19.6398C4.57956 18.2132 3.77067 17.832 3.77067 17.832C2.63822 17.0695 3.85778 17.0941 3.85778 17.0941C5.10222 17.1802 5.76178 18.3608 5.76178 18.3608C6.84444 20.2301 8.67378 19.6767 9.38311 19.3815C9.49511 18.5822 9.81867 18.0411 10.1671 17.7336C7.40444 17.4262 4.50489 16.3685 4.50489 11.683C4.50489 10.318 4.97778 9.22344 5.78667 8.35029C5.66222 8.04284 5.22667 6.76386 5.91111 5.10364C5.91111 5.10364 6.95644 4.77159 9.33333 6.35803C10.3164 6.08747 11.3867 5.9522 12.4444 5.9522C13.5022 5.9522 14.5724 6.08747 15.5556 6.35803C17.9324 4.77159 18.9778 5.10364 18.9778 5.10364C19.6622 6.76386 19.2267 8.04284 19.1022 8.35029C19.9111 9.22344 20.384 10.318 20.384 11.683C20.384 16.3808 17.472 17.4139 14.6969 17.7213C15.1449 18.1025 15.5556 18.8527 15.5556 19.9964V23.3661C15.5556 23.6981 15.7547 24.0916 16.3893 23.981C21.3298 22.333 24.8889 17.7336 24.8889 12.2979C24.8889 10.6829 24.567 9.08376 23.9416 7.59171C23.3162 6.09966 22.3996 4.74395 21.244 3.60198C20.0884 2.46001 18.7166 1.55415 17.2067 0.936124C15.6969 0.318095 14.0787 0 12.4444 0Z" fill="white"/>
</svg>
