<svg width="26" height="24" viewBox="0 0 26 24" fill="none" xmlns="http://www.w3.org/2000/svg">
<path d="M7.47706 0H17.9304C21.9126 0 25.1482 3.12 25.1482 6.96V17.04C25.1482 18.8859 24.3877 20.6562 23.0341 21.9615C21.6805 23.2667 19.8447 24 17.9304 24H7.47706C3.49483 24 0.259277 20.88 0.259277 17.04V6.96C0.259277 5.11409 1.01972 3.34379 2.37332 2.03854C3.72691 0.733284 5.56278 0 7.47706 0ZM7.22817 2.4C6.04 2.4 4.90049 2.85514 4.06033 3.6653C3.22017 4.47546 2.74817 5.57426 2.74817 6.72V17.28C2.74817 19.668 4.75172 21.6 7.22817 21.6H18.1793C19.3674 21.6 20.507 21.1449 21.3471 20.3347C22.1873 19.5245 22.6593 18.4257 22.6593 17.28V6.72C22.6593 4.332 20.6557 2.4 18.1793 2.4H7.22817ZM19.2371 4.2C19.6496 4.2 20.0453 4.35804 20.337 4.63934C20.6287 4.92064 20.7926 5.30218 20.7926 5.7C20.7926 6.09782 20.6287 6.47936 20.337 6.76066C20.0453 7.04197 19.6496 7.2 19.2371 7.2C18.8245 7.2 18.4288 7.04197 18.1371 6.76066C17.8454 6.47936 17.6815 6.09782 17.6815 5.7C17.6815 5.30218 17.8454 4.92064 18.1371 4.63934C18.4288 4.35804 18.8245 4.2 19.2371 4.2ZM12.7037 6C14.354 6 15.9366 6.63214 17.1035 7.75736C18.2704 8.88258 18.9259 10.4087 18.9259 12C18.9259 13.5913 18.2704 15.1174 17.1035 16.2426C15.9366 17.3679 14.354 18 12.7037 18C11.0535 18 9.47084 17.3679 8.30395 16.2426C7.13705 15.1174 6.4815 13.5913 6.4815 12C6.4815 10.4087 7.13705 8.88258 8.30395 7.75736C9.47084 6.63214 11.0535 6 12.7037 6ZM12.7037 8.4C11.7136 8.4 10.764 8.77928 10.0639 9.45442C9.36372 10.1295 8.97039 11.0452 8.97039 12C8.97039 12.9548 9.36372 13.8705 10.0639 14.5456C10.764 15.2207 11.7136 15.6 12.7037 15.6C13.6939 15.6 14.6435 15.2207 15.3436 14.5456C16.0437 13.8705 16.4371 12.9548 16.4371 12C16.4371 11.0452 16.0437 10.1295 15.3436 9.45442C14.6435 8.77928 13.6939 8.4 12.7037 8.4Z" fill="white"/>
</svg>
